PathFileType	4	(X/Y/Z)	6_coords_data.trc
DataRate	CameraRate	NumFrames	NumMarkers	Units	OrigDataRate	OrigDataStartFrame	OrigNumFrames
30.0	30.0	6	21	m	30.0	12	55
Frame#	Time	THUMB_TIP	THUMB_IP	THUMB_MCP	THUMB_CMC	INDEX_TIP	INDEX_DIP	INDEX_PIP	INDEX_MCP	MIDDLE_TIP	MIDDLE_DIP	MIDDLE_PIP	MIDDLE_MCP	RING_TIP	RING_DIP	RING_PIP	RING_MCP	PINKY_TIP	PINKY_DIP	PINKY_PIP	PINKY_MCP	WRIST
X1	Y1	Z1	X2	Y2	Z2	X3	Y3	Z3	X4	Y4	Z4	X5	Y5	Z5	X6	Y6	Z6	X7	Y7	Z7	X8	Y8	Z8	X9	Y9	Z9	X10	Y10	Z10	X11	Y11	Z11	X12	Y12	Z12	X13	Y13	Z13	X14	Y14	Z14	X15	Y15	Z15	X16	Y16	Z16	X17	Y17	Z17	X18	Y18	Z18	X19	Y19	Z19	X20	Y20	Z20	X21	Y21	Z21
10	0.3666666666666651	0.46325427469310343	-0.025792055891816545	-0.17450037215086164	0.469746256170545	-0.032209539414468136	-0.15341317030393442	0.46378163219457336	-0.03210935725282538	-0.12286430413250748	0.4696351864001884	-0.03039502197565136	-0.07867508646892624	0.5627985953537663	0.02630854982591735	-0.1791954266117431	0.5517841856363744	0.01827174313319513	-0.1672751700389491	0.5366651071634775	0.007610087012928424	-0.15025305536704164	0.510798235937322	-0.005520584148903107	-0.11907411148163499	0.5946200279132408	0.04567893997058081	-0.138121236493698	0.5801824117903928	0.036793983175174905	-0.13174842052012328	0.5567606751836264	0.02341634989749597	-0.1207089127316755	0.5209305832963793	0.0054868945255633905	-0.10093804865300388	0.6016874646709628	0.04426540158313219	-0.1004932541689875	0.587171949652053	0.03426870635372925	-0.09670301562422079	0.5668310332987557	0.020897664023130758	-0.09144541846377596	0.5317848688647581	0.0030840019551148234	-0.08200292746871934	0.6005370121568402	0.02550109203882367	-0.051594388663898816	0.5852294044874283	0.018089606828379012	-0.05353011447473005	0.5660257442609714	0.009951901298799193	-0.05594034301589451	0.5324730238922541	-0.0020507922456619587	-0.06151113780088008	0.4622830810018608	-0.023011742144276925	-0.051989820119430985
11	0.39999999999999825	0.46324896651972625	-0.025833492772241007	-0.17450500058230253	0.4697279184129187	-0.03223468566957821	-0.15340884188322235	0.46373423428385896	-0.03209721389755349	-0.1228658090922084	0.4696174695580776	-0.030394591564674056	-0.0786800804018295	0.5627791279306473	0.026273188686315008	-0.17924165498652478	0.5517531868509451	0.018257134223968685	-0.1673180861347241	0.5366216122589225	0.007630370020986987	-0.1502852600057376	0.5107291648774214	-0.005444786055809447	-0.11910421518418607	0.5946629325821694	0.04555780509391949	-0.13816172451924585	0.5802032446607652	0.03671267900984132	-0.13178354532982525	0.5567533711423485	0.023387432881857073	-0.12074041182529421	0.5208797182173887	0.005559818523571125	-0.10095645081866633	0.6018169569328395	0.04401838716089346	-0.10058730487540798	0.5872592191219652	0.03408944432889782	-0.0967809465017383	0.566861163262358	0.02081758686000712	-0.09149349953048658	0.5317580495409521	0.003130597056448914	-0.0820244640594962	0.600627865767542	0.02528080998943305	-0.051642489564130145	0.5852945334944772	0.017921156715676956	-0.05357236652753433	0.5660594119269748	0.009854177769395456	-0.0559694414040568	0.532466754066366	-0.0020397068068450652	-0.061532920400795	0.462283081001861	-0.023011742144276925	-0.051989820119430985
12	0.43333333333333146	0.46323611471379555	-0.025882267381370783	-0.1745158805212231	0.46970232108436605	-0.032255764362934536	-0.15340742933694163	0.4636822309918811	-0.03209671566688832	-0.12286969499415434	0.4695927509991432	-0.030391532060510262	-0.07868770655868107	0.5627691633800258	0.026243619951769825	-0.17927956258105085	0.5517283428158035	0.01824668937984597	-0.16735692098212335	0.5365852556730611	0.007658716280185329	-0.15031017435914062	0.5106603366709161	-0.005354282295873092	-0.11913010802194801	0.5947067991009041	0.045438443850797317	-0.13820001604702742	0.5802236091997871	0.036636754100567326	-0.13181507534026426	0.55674501265839	0.023372048235638876	-0.12076009308052124	0.5208276986585861	0.005632441045910652	-0.10097624075612216	0.6019687773521092	0.043738069390641954	-0.10068871081046274	0.587358225218403	0.033894824497535	-0.09686218545152747	0.5668936920600975	0.020741744786064387	-0.09153495768125872	0.5317280986601822	0.0031942524260402116	-0.08203825368951845	0.6006897529491689	0.025119829762699775	-0.051636479463058826	0.5853379879551893	0.017799764426334352	-0.053570375799723624	0.5660795323573529	0.009792238351652549	-0.05597940737889656	0.5324582833265453	-0.0020182071382280897	-0.06154792979862117	0.4622830810018609	-0.023011742144276925	-0.051989820119430985
13	0.4666666666666647	0.46318813462749586	-0.025949599237729215	-0.17452139561609792	0.46964930505399405	-0.03229871434366671	-0.15340405643495808	0.46360864385682676	-0.032098981540727434	-0.1228706236258475	0.46957104115580584	-0.030382886939600895	-0.07869602868974068	0.5627374184637464	0.026209890725484408	-0.17933776585776862	0.5516864196551836	0.018235743252336678	-0.16740929582135405	0.5365317523316087	0.007689930339216278	-0.15034671332885807	0.5105817045323751	-0.005263685793241213	-0.11916282418221008	0.5947369316063177	0.045312839242616754	-0.13827172672148358	0.5802333725895138	0.036557401844175774	-0.1318694543273982	0.5567287722927693	0.02336093625164115	-0.12078809111002575	0.5207668341924394	0.005718080678456583	-0.10099878651658964	0.6021348128207514	0.04341858374635077	-0.10081141989662684	0.5874658400479467	0.03367221350201055	-0.09696051028317773	0.5669237831788111	0.020658725302165837	-0.09158901110159898	0.5316923921199322	0.0032591351241155753	-0.08206408697107387	0.600735328554503	0.024981981536728703	-0.05160573800605717	0.585369311607752	0.017692917968863076	-0.05354353972340947	0.566093527965058	0.00973577563065764	-0.05598076555816223	0.532448605848508	-0.001996560597796515	-0.06157137852936667	0.4622830810018609	-0.023011742144276925	-0.051989820119430985
14	0.4999999999999978	0.46313006910014354	-0.02605973772829706	-0.17453546488024987	0.4695942229745377	-0.032366616928112824	-0.1534063856422166	0.46355273911051875	-0.032122713088059585	-0.1228734364948183	0.4695493850865259	-0.030372400943976197	-0.07870482043729715	0.5627099561393558	0.026136721419317777	-0.1794075268341426	0.5516491646818305	0.018186359042219324	-0.1674722584917068	0.5364836188246757	0.007687656399761322	-0.15039030032878603	0.5105107957878147	-0.005192308564732406	-0.11919486700899812	0.5947648457942016	0.045159942045714496	-0.1383674217789001	0.5802437205430216	0.036447241029751054	-0.1319466926578444	0.556710794070762	0.023321681183166798	-0.12084126153766941	0.5207125070548551	0.0057829409456230385	-0.10102551416845956	0.6023101521979454	0.04306156794152516	-0.10095475869551143	0.5875829413104715	0.033414236097566885	-0.09707684072726885	0.5669633612691504	0.020544612379531757	-0.09165598440416459	0.531663203820247	0.0033087875950762458	-0.08208801376864361	0.6007644568425957	0.02488050269840847	-0.051564399853073595	0.5853885826862871	0.017617778863990408	-0.05352280135285159	0.5661003921142458	0.009696906086248291	-0.0559799333996574	0.5324356521937674	-0.0019653782112050155	-0.061597749884015285	0.4622830810018609	-0.023011742144276925	-0.051989820119430985
15	0.533333333333331	0.46305468378544634	-0.02620341039034557	-0.17454266360668405	0.4695272931051493	-0.03247350471497146	-0.15340522653984004	0.46347533541052155	-0.032171351383504354	-0.12287487260434304	0.4695115015164364	-0.030378791718290832	-0.07871333471685033	0.5626909232536705	0.02602016507533833	-0.17948529773295632	0.5516189718723143	0.018095626970477063	-0.16754320459843902	0.5364440921138222	0.00764752252311196	-0.15043852773004268	0.5104464676895103	-0.005149532078799202	-0.11922963457747898	0.5948020101892604	0.04498042649634859	-0.13846398728175896	0.5802615955111908	0.03631393516657455	-0.13202440119096606	0.5567012796161689	0.02326021338031148	-0.12089240170957805	0.520667493053478	0.005809334747474804	-0.10106360996886815	0.6024915176833193	0.042684235248244606	-0.10109433064367218	0.5877021670542781	0.03314367956251496	-0.09718883385340701	0.567010797188493	0.02041070611606388	-0.09171904598830177	0.5316408556476484	0.003340717047775499	-0.08211157271975933	0.6007803307726524	0.024800207704432142	-0.051492796442647704	0.5854004094193251	0.017552757684128117	-0.05347584645932901	0.5661065178688962	0.009653078249689528	-0.05595633686918772	0.5324301391932199	-0.001955296657122685	-0.06161589536039014	0.462283081001861	-0.023011742144276925	-0.051989820119430985
